<?xml version="1.0" encoding="UTF-8"?>
<svg width="120" height="100" viewBox="0 0 120 100" xmlns="http://www.w3.org/2000/svg">
  <!-- あり（蟻）のイラスト -->
  <defs>
    <radialGradient id="antGradient" cx="50%" cy="50%" r="50%">
      <stop offset="0%" style="stop-color:#8B4513;stop-opacity:1" />
      <stop offset="100%" style="stop-color:#654321;stop-opacity:1" />
    </radialGradient>
  </defs>
  
  <!-- 腹部 -->
  <ellipse cx="60" cy="70" rx="16" ry="10" fill="url(#antGradient)"/>
  
  <!-- 胸部（3つのセクション） -->
  <ellipse cx="60" cy="55" rx="12" ry="8" fill="url(#antGradient)"/>
  <ellipse cx="60" cy="45" rx="10" ry="7" fill="url(#antGradient)"/>
  <ellipse cx="60" cy="35" rx="8" ry="6" fill="url(#antGradient)"/>
  
  <!-- 頭部 -->
  <circle cx="60" cy="25" r="6" fill="url(#antGradient)"/>
  
  <!-- 触角 -->
  <line x1="57" y1="22" x2="52" y2="15" stroke="#000" stroke-width="2"/>
  <line x1="63" y1="22" x2="68" y2="15" stroke="#000" stroke-width="2"/>
  <circle cx="52" cy="15" r="2" fill="#000"/>
  <circle cx="68" cy="15" r="2" fill="#000"/>
  
  <!-- 脚（6本） -->
  <!-- 前脚 -->
  <line x1="55" y1="37" x2="48" y2="42" stroke="#000" stroke-width="2"/>
  <line x1="65" y1="37" x2="72" y2="42" stroke="#000" stroke-width="2"/>
  <!-- 中脚 -->
  <line x1="55" y1="47" x2="45" y2="53" stroke="#000" stroke-width="2"/>
  <line x1="65" y1="47" x2="75" y2="53" stroke="#000" stroke-width="2"/>
  <!-- 後脚 -->
  <line x1="54" y1="57" x2="46" y2="65" stroke="#000" stroke-width="2"/>
  <line x1="66" y1="57" x2="74" y2="65" stroke="#000" stroke-width="2"/>
  
  <!-- 目 -->
  <circle cx="58" cy="23" r="1" fill="#000"/>
  <circle cx="62" cy="23" r="1" fill="#000"/>
</svg>